<svg width="18" height="18" viewBox="0 0 18 18" fill="none" xmlns="http://www.w3.org/2000/svg">
<g clip-path="url(#clip0_14101_23)">
<path fill-rule="evenodd" clip-rule="evenodd" d="M9.06869 0C13.9183 0 17.8498 4.02835 17.8498 9C17.8498 13.9706 13.9215 18 9.06869 18H8.78109C3.93144 18 0 13.9717 0 9C0 4.02945 3.92827 0 8.78109 0H9.06869ZM7.95147 4.54295L7.6709 4.54291C7.48402 4.54297 7.2902 4.54312 7.0978 4.54342C7.02165 4.54353 6.95143 4.54368 6.88877 4.54379L6.81022 4.54396L6.46697 4.54476L6.09291 7.71807L6.8616 7.80872L7.15527 5.31749C7.27405 5.31732 7.39307 5.3172 7.51033 5.31713L8.04311 5.31719C8.19373 5.31736 8.32838 5.31767 8.44402 5.31812C9.25755 5.32129 9.90448 5.77069 10.2378 6.47416C10.0363 6.45424 9.82529 6.44449 9.60441 6.44362C9.47612 6.44312 9.35191 6.4428 9.2328 6.44265L8.89183 6.44265C8.81993 6.44274 8.75075 6.4429 8.68462 6.4431C8.64598 6.44322 8.61193 6.44334 8.58276 6.44346C8.57692 6.44349 8.57169 6.44351 8.56708 6.44354L8.54691 6.44365L8.20229 6.44552L7.95308 8.69603C7.89336 8.69384 7.83316 8.69276 7.77243 8.69276C7.22779 8.69276 6.72986 8.78033 6.33542 8.97007C5.82889 9.21378 5.50825 9.62051 5.45481 10.1705C5.4104 10.6279 5.60024 11.0574 5.9991 11.3565C6.37433 11.6379 6.91561 11.7937 7.60771 11.8147L7.43538 13.3708L7.86621 13.3722C7.86848 13.3722 7.87127 13.3723 7.87456 13.3723L7.96169 13.3725C7.99239 13.3726 8.02587 13.3726 8.06196 13.3727C8.16799 13.3729 8.27759 13.373 8.38984 13.3731L8.73359 13.3731C8.90852 13.373 9.08731 13.3727 9.26684 13.3722C11.4578 13.3661 12.8337 12.2793 12.9882 9.88111C13.0747 8.53873 12.6935 7.59802 11.9103 7.04033C11.6742 6.87221 11.4131 6.74466 11.126 6.65155C10.7784 5.41537 9.77525 4.54915 8.44705 4.54396C8.2841 4.54332 8.08408 4.54299 7.85516 4.54289L7.95147 4.54295ZM10.5236 10.4355C10.5589 10.4574 10.597 10.4811 10.6444 10.5106C10.6621 10.5217 10.6848 10.5359 10.7254 10.5612C10.7579 10.5815 10.7827 10.5969 10.807 10.612C11.2542 10.8904 11.5773 11.0793 11.8927 11.2348C11.4453 12.184 10.5578 12.5945 9.26468 12.5981C8.93397 12.599 8.60568 12.5992 8.29962 12.5989L8.39237 11.7614C8.5059 11.7442 8.60561 11.7236 8.69142 11.6978C9.24992 11.5634 9.72872 11.3157 10.1303 10.9174C10.2747 10.7741 10.4059 10.6136 10.5236 10.4355ZM7.77243 9.46693C8.52242 9.46693 9.09529 9.6313 9.85487 10.0429C9.77228 10.1634 9.68229 10.2714 9.58524 10.3677C9.19652 10.7533 8.6953 10.9528 8.05417 11.0228C8.00291 11.0276 7.95057 11.0319 7.89816 11.0354C7.8606 11.038 7.82578 11.0401 7.7947 11.0416C7.78176 11.0423 7.77169 11.0427 7.7648 11.043C7.15164 11.0421 6.71667 10.927 6.4634 10.7371C6.28052 10.6 6.20695 10.4335 6.22522 10.2454C6.27397 9.74329 6.84847 9.46693 7.77243 9.46693ZM11.2576 7.54499C11.3292 7.58329 11.3971 7.6252 11.4614 7.67097C12.0108 8.06222 12.2861 8.74135 12.2158 9.8313C12.2006 10.0668 12.1726 10.2856 12.1319 10.4883C11.8724 10.3545 11.5924 10.1891 11.216 9.95479C11.192 9.93982 11.1673 9.92446 11.135 9.90432C11.0945 9.87904 11.0717 9.86483 11.0539 9.85372C10.9875 9.81229 10.939 9.78213 10.891 9.75243C10.8865 9.74968 10.8821 9.74696 10.8777 9.74423C11.0785 9.23064 11.2039 8.61692 11.2503 7.89588C11.258 7.7773 11.2603 7.66026 11.2576 7.54499ZM8.89563 7.2168C9.10933 7.21654 9.34733 7.2168 9.6014 7.21779C9.91693 7.21901 10.2048 7.24079 10.4649 7.28632C10.4856 7.46528 10.4904 7.65246 10.4779 7.84607C10.4397 8.43884 10.3453 8.93595 10.2002 9.34739C9.95845 9.21688 9.73941 9.1143 9.50507 9.02251C9.247 8.92139 8.98746 8.84299 8.72162 8.78806L8.89563 7.2168Z" fill="#151515"/>
</g>
<defs>
<clipPath id="clip0_14101_23">
<rect width="18" height="18" fill="white"/>
</clipPath>
</defs>
    <style>
    path {
      fill: #151515;
    }
    @media (prefers-color-scheme: dark) {
      path {
        fill: #FFFFFF;
      }
    }
  </style>
</svg>
